<svg width="32" height="32" viewBox="0 0 32 32" fill="none" xmlns="http://www.w3.org/2000/svg">
<path d="M7.02538 13C7.02372 11.8145 7.25662 10.6403 7.71067 9.54519C8.16472 8.45006 8.83094 7.45558 9.67098 6.61903C10.511 5.78248 11.5083 5.12039 12.6053 4.6709C13.7023 4.2214 14.8774 3.99339 16.0629 3.99999C21.0129 4.03749 24.9754 8.14999 24.9754 13.1125V14C24.9754 18.475 25.9129 21.075 26.7379 22.5C26.8255 22.6517 26.8717 22.8239 26.8719 22.9991C26.872 23.1743 26.8261 23.3465 26.7388 23.4985C26.6514 23.6504 26.5257 23.7767 26.3741 23.8647C26.2226 23.9527 26.0506 23.9994 25.8754 24H6.12538C5.95015 23.9994 5.77815 23.9527 5.62662 23.8647C5.47509 23.7767 5.34935 23.6504 5.262 23.4985C5.17465 23.3465 5.12875 23.1743 5.12891 22.9991C5.12906 22.8239 5.17526 22.6517 5.26288 22.5C6.08788 21.075 7.02538 18.475 7.02538 14V13Z" stroke="black" stroke-width="2" stroke-linecap="round" stroke-linejoin="round"/>
<path d="M12 24V25C12 26.0609 12.4214 27.0783 13.1716 27.8284C13.9217 28.5786 14.9391 29 16 29C17.0609 29 18.0783 28.5786 18.8284 27.8284C19.5786 27.0783 20 26.0609 20 25V24" stroke="black" stroke-width="2" stroke-linecap="round" stroke-linejoin="round"/>
</svg>
