<svg width="32" height="32" viewBox="0 0 32 32" fill="none" xmlns="http://www.w3.org/2000/svg">
<path d="M5.67534 22.125C4.18645 19.613 3.66565 16.6439 4.21072 13.7752C4.75579 10.9064 6.32925 8.33525 8.63569 6.54438C10.9421 4.75352 13.823 3.86611 16.7373 4.04875C19.6517 4.2314 22.3992 5.47153 24.464 7.53634C26.5288 9.60115 27.7689 12.3486 27.9516 15.263C28.1342 18.1774 27.2468 21.0582 25.4559 23.3646C23.6651 25.6711 21.0939 27.2445 18.2252 27.7896C15.3564 28.3347 12.3873 27.8139 9.87534 26.325V26.325L5.72534 27.5C5.55531 27.5497 5.37503 27.5528 5.20341 27.5089C5.03178 27.465 4.87513 27.3757 4.74986 27.2504C4.6246 27.1252 4.53534 26.9685 4.49144 26.7969C4.44753 26.6253 4.45061 26.445 4.50034 26.275L5.67534 22.125Z" stroke="black" stroke-width="2" stroke-linecap="round" stroke-linejoin="round"/>
<path d="M16 17.5C16.8284 17.5 17.5 16.8284 17.5 16C17.5 15.1716 16.8284 14.5 16 14.5C15.1716 14.5 14.5 15.1716 14.5 16C14.5 16.8284 15.1716 17.5 16 17.5Z" fill="black"/>
<path d="M10 17.5C10.8284 17.5 11.5 16.8284 11.5 16C11.5 15.1716 10.8284 14.5 10 14.5C9.17157 14.5 8.5 15.1716 8.5 16C8.5 16.8284 9.17157 17.5 10 17.5Z" fill="black"/>
<path d="M22 17.5C22.8284 17.5 23.5 16.8284 23.5 16C23.5 15.1716 22.8284 14.5 22 14.5C21.1716 14.5 20.5 15.1716 20.5 16C20.5 16.8284 21.1716 17.5 22 17.5Z" fill="black"/>
</svg>
